<svg xmlns="http://www.w3.org/2000/svg" xmlns:xlink="http://www.w3.org/1999/xlink">
	<symbol viewBox="0 0 52 52" id="ic-construction" >
        <g clip-path="url(#clip69_749)">
            <path id="Vector" d="M49.97 27.52C50.81 27.52 51.5 26.84 51.5 26L51.5 14.62C51.5 13.78 50.81 13.1 49.97 13.1C48.91 13.1 28.16 13.1 27.02 13.1L27.02 3.25C27.02 2.4 26.34 1.72 25.5 1.72L9.25 1.72C8.4 1.72 7.72 2.4 7.72 3.25L7.72 13.1L1.02 13.1C0.18 13.1 -0.5 13.78 -0.5 14.62L-0.5 26C-0.5 26.84 0.18 27.52 1.02 27.52L7.72 27.52L7.72 35.85L1.02 35.85C0.18 35.85 -0.5 36.53 -0.5 37.37L-0.5 48.75C-0.5 49.59 0.18 50.27 1.02 50.27L49.97 50.27C50.81 50.27 51.5 49.59 51.5 48.75L51.5 37.37C51.5 36.53 50.81 35.85 49.97 35.85L43.27 35.85L43.27 27.52L49.97 27.52ZM48.45 24.47C46.82 24.47 36.75 24.47 35.14 24.47L35.14 16.14L48.45 16.14L48.45 24.47ZM32.1 24.47C30.5 24.47 20.5 24.47 18.89 24.47L18.89 16.14L32.1 16.14L32.1 24.47ZM10.77 4.77L23.97 4.77L23.97 13.1C22.38 13.1 12.37 13.1 10.77 13.1L10.77 4.77ZM2.54 24.47L2.54 16.14L15.85 16.14L15.85 24.47C14.23 24.47 4.17 24.47 2.54 24.47ZM10.77 27.52L23.97 27.52L23.97 35.85C22.38 35.85 12.37 35.85 10.77 35.85L10.77 27.52ZM2.54 38.89L15.85 38.89L15.85 47.22L2.54 47.22L2.54 38.89ZM18.89 38.89L32.1 38.89L32.1 47.22L18.89 47.22L18.89 38.89ZM48.45 38.89L48.45 47.22L35.14 47.22L35.14 38.89L48.45 38.89ZM40.22 35.85C38.63 35.85 28.62 35.85 27.02 35.85L27.02 27.52L40.22 27.52L40.22 35.85Z" fill-opacity="1.000000" fill-rule="nonzero"/>
        </g>
    </symbol>
    <symbol viewBox="0 0 52 52" id="ic-development">
        <g clip-path="url(#clip69_744)">
            <path d="M45.4 3.14C43.15 3.14 41.18 4.37 40.12 6.19L1.02 6.19C0.18 6.19 -0.5 6.87 -0.5 7.71L-0.5 47.32C-0.5 48.16 0.18 48.85 1.02 48.85L45.4 48.85C48.76 48.85 51.5 46.11 51.5 42.75L51.5 9.24C51.5 5.88 48.76 3.14 45.4 3.14ZM45.4 45.8C44.81 45.8 3.1 45.8 2.54 45.8L2.54 9.24L39.31 9.24L39.31 42.75C39.31 43.59 39.99 44.28 40.83 44.28C41.67 44.28 42.35 43.59 42.35 42.75C42.35 41.07 43.72 39.71 45.4 39.71C47.08 39.71 48.45 41.07 48.45 42.75C48.45 44.43 47.08 45.8 45.4 45.8ZM48.45 37.48C47.55 36.96 46.51 36.66 45.4 36.66C44.29 36.66 43.25 36.96 42.35 37.48L42.35 9.24C42.35 7.56 43.72 6.19 45.4 6.19C47.08 6.19 48.45 7.56 48.45 9.24L48.45 37.48Z" fill-opacity="1.000000" fill-rule="nonzero"/>
            <path d="M34.64 12.28L7.21 12.28C6.37 12.28 5.69 12.97 5.69 13.81L5.69 41.23C5.69 42.07 6.37 42.75 7.21 42.75L22.45 42.75C22.85 42.75 23.24 42.59 23.53 42.31C23.81 42.02 23.97 41.63 23.97 41.23L23.97 38.18C23.97 36.2 25.25 34.5 27.02 33.87L27.02 41.23C27.02 42.07 27.7 42.75 28.54 42.75L34.64 42.75C35.48 42.75 36.16 42.07 36.16 41.23L36.16 13.81C36.16 12.97 35.48 12.28 34.64 12.28ZM33.11 39.71L30.07 39.71L30.07 32.09C30.07 31.25 29.38 30.57 28.54 30.57C24.34 30.57 20.92 33.98 20.92 38.18L20.92 39.71L8.74 39.71L8.74 30.57L14.83 30.57L14.83 35.14C14.83 35.98 15.51 36.66 16.35 36.66C17.2 36.66 17.88 35.98 17.88 35.14L17.88 29.04C17.88 28.2 17.2 27.52 16.35 27.52L8.74 27.52L8.74 15.33L17.88 15.33L17.88 21.42L13.31 21.42C12.47 21.42 11.78 22.11 11.78 22.95C11.78 23.79 12.47 24.47 13.31 24.47L19.4 24.47L25.5 24.47C26.34 24.47 27.02 23.79 27.02 22.95C27.02 22.11 26.34 21.42 25.5 21.42L20.92 21.42L20.92 15.33L33.11 15.33L33.11 39.71Z"  fill-opacity="1.000000" fill-rule="nonzero"/>
        </g>
    </symbol>
    <symbol viewBox="0 0 52 52" id="ic-design">
        <g clip-path="url(#clip1270_3714)">
            <path id="Vector" d="M9.93 33.84C7.61 33.84 5.71 35.73 5.71 38.06C5.71 40.38 7.61 42.28 9.93 42.28C12.26 42.28 14.15 40.38 14.15 38.06C14.15 35.73 12.26 33.84 9.93 33.84ZM9.93 39.46C9.16 39.46 8.53 38.83 8.53 38.06C8.53 37.28 9.16 36.65 9.93 36.65C10.71 36.65 11.34 37.28 11.34 38.06C11.34 38.83 10.71 39.46 9.93 39.46Z" fill-opacity="1.000000" fill-rule="nonzero"/>
            <path id="Vector" d="M45.46 28.56C46.42 27.27 46.59 25.46 45.72 23.94L40.1 14.11C39.13 12.43 37.08 11.66 35.25 12.15C35.64 10.4 34.87 8.52 33.24 7.58L23.5 1.95C22.1 1.15 20.44 1.23 19.16 2.02C18.42 0.81 17.08 0 15.56 0L4.21 0C1.89 0 0 1.89 0 4.21C0 5.19 0 42.65 0 43.78C0 46.1 1.89 48 4.21 48C5.31 48 38.43 48 43.78 48C46.1 48 48 46.1 48 43.78L48 32.43C48 30.7 46.95 29.21 45.46 28.56ZM16.96 43.78C16.96 44.55 16.33 45.18 15.56 45.18L4.21 45.18C3.44 45.18 2.81 44.55 2.81 43.78C2.81 43.13 2.81 31.64 2.81 31.03L16.96 31.03L16.96 43.78ZM16.96 28.21L2.81 28.21L2.81 16.87L16.96 16.87L16.96 28.21ZM16.96 14.06L2.81 14.06L2.81 4.21C2.81 3.44 3.44 2.81 4.21 2.81L15.56 2.81C16.33 2.81 16.96 3.44 16.96 4.21L16.96 14.06ZM19.78 5.58L20.17 4.9C20.56 4.23 21.42 4 22.09 4.39L31.83 10.01C32.5 10.4 32.73 11.26 32.34 11.94L30.72 14.76C30.68 14.82 30.64 14.88 30.61 14.95L19.78 33.78L19.78 5.58ZM19.78 39.42L32.92 16.57L35.64 15C36.33 14.6 37.27 14.85 37.66 15.51L43.28 25.35C43.67 26.02 43.44 26.88 42.76 27.28C41.76 27.86 20.77 40.01 19.78 40.58L19.78 39.42ZM45.18 43.78C45.18 44.55 44.55 45.18 43.78 45.18L19.53 45.18C19.68 44.76 19.77 44.31 19.78 43.83L41.9 31.03L43.78 31.03C44.55 31.03 45.18 31.66 45.18 32.43L45.18 43.78Z" fill-opacity="1.000000" fill-rule="nonzero"/>
        </g>
    </symbol>
    <symbol viewBox="0 0 52 52" id="ic-repairs">
        <g clip-path="url(#clip69_740)">
		<path d="M42.35 4.57C42.35 2.05 40.3 0 37.78 0L7.32 0C4.8 0 2.75 2.05 2.75 4.57L2.75 13.71C2.75 16.23 4.8 18.28 7.32 18.28L37.78 18.28C40.3 18.28 42.35 16.23 42.35 13.71L42.35 12.18L43.88 12.18C44.72 12.18 45.4 12.87 45.4 13.71L45.4 19.8C45.4 20.64 44.72 21.32 43.88 21.32L25.6 21.32C23.08 21.32 21.03 23.37 21.03 25.89L21.03 30.46L19.5 30.46C18.66 30.46 17.98 31.15 17.98 31.99L17.98 38L16.46 44.19C15.47 48.15 18.46 52 22.55 52C26.64 52 29.63 48.15 28.65 44.2L27.12 38L27.12 31.99C27.12 31.15 26.44 30.46 25.6 30.46L24.07 30.46L24.07 25.89C24.07 25.05 24.76 24.37 25.6 24.37L43.88 24.37C46.4 24.37 48.45 22.32 48.45 19.8L48.45 13.71C48.45 11.19 46.4 9.14 43.88 9.14L42.35 9.14L42.35 4.57ZM24.07 33.51L24.07 36.66L21.03 36.66L21.03 33.51L24.07 33.51ZM22.55 48.95C20.45 48.95 18.9 46.98 19.41 44.92L20.7 39.71L24.4 39.71L25.69 44.93C26.2 46.97 24.66 48.95 22.55 48.95ZM7.32 3.04L37.78 3.04C38.62 3.04 39.31 3.73 39.31 4.57L39.31 6.09L34.74 6.09C33.26 6.09 31.36 6.64 29.17 7.29C26.21 8.15 22.85 9.14 19.5 9.14C16.24 9.14 13.93 8.18 11.9 7.34C10.35 6.7 8.88 6.09 7.32 6.09L5.79 6.09L5.79 4.57C5.79 3.73 6.48 3.04 7.32 3.04ZM39.31 13.71C39.31 14.55 38.62 15.23 37.78 15.23L7.32 15.23C6.48 15.23 5.79 14.55 5.79 13.71L5.79 9.14L7.32 9.14C8.27 9.14 9.36 9.58 10.74 10.16C12.92 11.06 15.63 12.18 19.5 12.18C23.29 12.18 27.03 11.09 30.03 10.21C31.91 9.66 33.69 9.14 34.74 9.14L39.31 9.14L39.31 13.71Z" fill-opacity="1.000000" fill-rule="nonzero"/>
	    </g>
    </symbol>
    <symbol viewBox="0 0 48 48" id="like">
        <g clip-path="url(#clip58_798)">
            <path id="Vector" d="M44.01 29.71C44.68 28.97 45.09 27.98 45.09 26.9C45.09 24.58 43.2 22.68 40.87 22.68L32.68 22.68C33.49 20.22 33.84 16.96 33.84 15.56L33.84 14.15C33.84 11.05 31.32 8.53 28.21 8.53L26.81 8.53C26.16 8.53 25.6 8.97 25.44 9.59L24.68 12.66C23.6 16.95 20.2 21.68 16.67 22.54C16.05 20.98 14.53 19.87 12.75 19.87L4.31 19.87C3.53 19.87 2.9 20.5 2.9 21.28L2.9 46.59C2.9 47.36 3.53 48 4.31 48L12.75 48C14.42 48 15.87 47.01 16.55 45.59L21.38 47.2C22.96 47.73 24.61 48 26.28 48L38.06 48C40.38 48 42.28 46.1 42.28 43.78C42.28 43.23 42.17 42.7 41.98 42.22C43.77 41.73 45.09 40.09 45.09 38.15C45.09 37.07 44.68 36.09 44.01 35.34C44.68 34.59 45.09 33.6 45.09 32.53C45.09 31.45 44.68 30.46 44.01 29.71ZM14.15 43.78C14.15 44.55 13.52 45.18 12.75 45.18L5.71 45.18L5.71 22.68L12.75 22.68C13.52 22.68 14.15 23.31 14.15 24.09L14.15 43.78ZM38.06 31.12L40.87 31.12C41.65 31.12 42.28 31.75 42.28 32.53C42.28 33.3 41.65 33.93 40.87 33.93L38.06 33.93C37.28 33.93 36.65 34.56 36.65 35.34C36.65 36.11 37.28 36.75 38.06 36.75L40.87 36.75C41.65 36.75 42.28 37.38 42.28 38.15C42.28 38.93 41.65 39.56 40.87 39.56L38.06 39.56C37.28 39.56 36.65 40.19 36.65 40.96C36.65 41.74 37.28 42.37 38.06 42.37C38.83 42.37 39.46 43 39.46 43.78C39.46 44.55 38.83 45.18 38.06 45.18L26.28 45.18C24.91 45.18 23.57 44.96 22.27 44.53L16.96 42.76L16.96 25.36C19.17 24.94 21.33 23.55 23.28 21.26C25.18 19.03 26.72 16.07 27.41 13.34L27.91 11.34L28.21 11.34C29.76 11.34 31.03 12.6 31.03 14.15L31.03 15.56C31.03 17.44 30.44 21.07 29.68 22.68L26.81 22.68C26.03 22.68 25.4 23.31 25.4 24.09C25.4 24.86 26.03 25.5 26.81 25.5L40.87 25.5C41.65 25.5 42.28 26.13 42.28 26.9C42.28 27.68 41.65 28.31 40.87 28.31L38.06 28.31C37.28 28.31 36.65 28.94 36.65 29.71C36.65 30.49 37.28 31.12 38.06 31.12Z" fill="#FF5A30" fill-opacity="1.000000" fill-rule="nonzero"/>
            <path id="Vector" d="M11.34 40.96C11.34 41.74 10.71 42.37 9.93 42.37C9.16 42.37 8.53 41.74 8.53 40.96C8.53 40.19 9.16 39.56 9.93 39.56C10.71 39.56 11.34 40.19 11.34 40.96Z" fill="#FF5A30" fill-opacity="1.000000" fill-rule="evenodd"/>
            <path id="Vector" d="M29.62 0C28.84 0 28.21 0.62 28.21 1.4L28.21 4.31C28.21 5.08 28.84 5.71 29.62 5.71C30.4 5.71 31.03 5.08 31.03 4.31L31.03 1.4C31.03 0.62 30.4 0 29.62 0Z" fill="#FF5A30" fill-opacity="1.000000" fill-rule="nonzero"/>
            <path id="Vector" d="M23.65 6.2L21.66 4.21C21.12 3.66 20.23 3.66 19.68 4.21C19.13 4.76 19.13 5.65 19.68 6.2L21.66 8.18C22.21 8.73 23.1 8.74 23.65 8.18C24.2 7.64 24.2 6.75 23.65 6.2Z" fill="#FF5A30" fill-opacity="1.000000" fill-rule="nonzero"/>
            <path id="Vector" d="M39.56 4.21C39.01 3.66 38.12 3.66 37.58 4.21L35.59 6.2C35.04 6.75 35.04 7.64 35.59 8.18C36.14 8.73 37.03 8.74 37.58 8.18L39.56 6.2C40.11 5.65 40.11 4.76 39.56 4.21Z" fill="#FF5A30" fill-opacity="1.000000" fill-rule="nonzero"/>
        </g>
    </symbol>
    <symbol viewBox="0 0 48 48" id="hand">
        <g clip-path="url(#clip58_843)">
		<path d="M7 44L1.5 44C0.67 44 0 43.32 0 42.5L0 25.5C0 24.67 0.67 24 1.5 24C8.51 24 11.77 26.43 11.91 26.53C12.39 26.9 12.6 27.53 12.44 28.12L8.44 42.89C8.27 43.54 7.67 44 7 44ZM3 41L5.85 41L9.24 28.45C8.2 27.96 6.15 27.22 3 27.04L3 41Z" fill="#FF5A30" fill-opacity="1.000000" fill-rule="nonzero"/>
		<path d="M26 48C21.48 48 13.15 44.54 6.96 41.63C6.21 41.28 5.89 40.39 6.24 39.64C6.59 38.89 7.48 38.56 8.23 38.91C16.47 42.78 22.95 45 26 45C30.05 45 39.26 40.61 44.08 38.08C43.53 37.77 42.7 37.5 41.5 37.5C39.74 37.5 37.57 38.22 35.47 38.91C34.79 39.14 34.11 39.36 33.43 39.57C31.95 40.03 30.2 40.5 28.49 40.5C24.28 40.5 18.71 38.49 18.48 38.41C17.7 38.12 17.3 37.26 17.58 36.48C17.87 35.7 18.73 35.31 19.5 35.58C19.56 35.6 24.81 37.5 28.49 37.5C29.81 37.5 31.35 37.07 32.55 36.7C33.2 36.5 33.86 36.28 34.52 36.07C36.84 35.29 39.25 34.5 41.49 34.5C46.45 34.5 47.83 37.8 47.88 37.94C48.16 38.64 47.88 39.44 47.22 39.81C46.62 40.14 32.31 48 26 48Z" fill="#FF5A30" fill-opacity="1.000000" fill-rule="nonzero"/>
		<path d="M33 39.67C32.17 39.67 31.5 39 31.5 38.17L31.5 37.27C31.5 36.09 30.65 35.06 29.5 34.83L10.23 30.88C9.42 30.72 8.9 29.93 9.06 29.11C9.23 28.3 10.02 27.78 10.83 27.95L30.1 31.89C32.64 32.41 34.5 34.67 34.5 37.28L34.5 38.18C34.5 39 33.82 39.67 33 39.67Z" fill="#FF5A30" fill-opacity="1.000000" fill-rule="nonzero"/>
		<path d="M36 28C35.79 28 35.6 27.96 35.41 27.88C34.94 27.68 24 22.91 24 13.1L24 5.07C24 4.43 24.4 3.86 25.01 3.65L35.51 0.08C35.83 -0.03 36.16 -0.03 36.48 0.08L46.98 3.65C47.59 3.85 48 4.42 48 5.07L48 13.1C48 22.91 37.05 27.68 36.58 27.88C36.39 27.96 36.2 28 36 28ZM27 6.14L27 13.1C27 19.8 33.91 23.79 35.99 24.84C38.08 23.78 45 19.77 45 13.1L45 6.14L36 3.08L27 6.14Z" fill="#FF5A30" fill-opacity="1.000000" fill-rule="nonzero"/>
		<path d="M35.49 19C35.1 19 34.71 18.84 34.43 18.56L30.43 14.56C29.85 13.97 29.85 13.02 30.43 12.43C31.02 11.85 31.97 11.85 32.56 12.43L35.33 15.21L40.29 8.59C40.79 7.93 41.73 7.8 42.39 8.3C43.06 8.79 43.19 9.73 42.69 10.4L36.69 18.4C36.43 18.74 36.03 18.96 35.6 18.99C35.56 19 35.53 19 35.49 19Z" fill="#FF5A30" fill-opacity="1.000000" fill-rule="nonzero"/>
	</g>
    </symbol>
    <symbol viewBox="0 0 48 48" id="comfort">
        <g clip-path="url(#clip58_851)">
		<path d="M38.05 2.08C31.88 1.44 26.33 5.93 25.68 12.1L24.56 22.82C24.48 23.59 25.04 24.28 25.81 24.37L26.28 24.41L25.1 35.6C24.56 40.74 28.3 45.37 33.44 45.91C38.58 46.45 43.21 42.7 43.75 37.56L44.92 26.37L45.39 26.42C46.16 26.5 46.85 25.94 46.93 25.17L48.06 14.45C48.71 8.28 44.22 2.73 38.05 2.08ZM37.75 4.88C42.38 5.37 45.75 9.53 45.26 14.16L44.87 17.89L28.09 16.12L28.48 12.39C28.97 7.76 33.13 4.4 37.75 4.88ZM27.5 21.72L27.8 18.92L44.58 20.68L44.28 23.48L27.5 21.72ZM40.95 37.27C40.57 40.87 37.34 43.49 33.74 43.11C30.14 42.73 27.52 39.5 27.9 35.9L29.07 24.71L42.12 26.08L40.95 37.27Z" fill="#FF5A30" fill-opacity="1.000000" fill-rule="nonzero"/>
		<path d="M32.17 40.11L35.9 40.51C36.67 40.59 37.36 40.03 37.44 39.25C37.52 38.48 36.96 37.79 36.19 37.71L32.46 37.32C31.69 37.24 31 37.8 30.91 38.57C30.83 39.34 31.39 40.03 32.17 40.11Z" fill="#FF5A30" fill-opacity="1.000000" fill-rule="nonzero"/>
		<path d="M9.94 2.08C3.77 2.73 -0.72 8.28 -0.07 14.45L1.06 25.17C1.14 25.94 1.83 26.5 2.6 26.42L3.07 26.37L4.24 37.56C4.79 42.7 9.41 46.45 14.55 45.91C19.69 45.37 23.43 40.74 22.89 35.6L21.72 24.41L22.18 24.36C22.95 24.28 23.51 23.59 23.43 22.82L22.31 12.1C21.66 5.93 16.11 1.44 9.94 2.08ZM3.71 23.48L3.41 20.68L20.2 18.92L20.49 21.72L3.71 23.48ZM20.09 35.9C20.47 39.5 17.85 42.73 14.25 43.11C10.66 43.49 7.42 40.87 7.04 37.27L5.87 26.08L18.92 24.71L20.09 35.9ZM19.9 16.12L3.12 17.88L2.73 14.16C2.24 9.53 5.61 5.37 10.24 4.88C14.86 4.4 19.02 7.76 19.51 12.39L19.9 16.12Z" fill="#FF5A30" fill-opacity="1.000000" fill-rule="nonzero"/>
		<path d="M12.1 40.51L15.83 40.12C16.6 40.04 17.16 39.34 17.08 38.57C17 37.8 16.3 37.24 15.53 37.32L11.8 37.71C11.03 37.79 10.47 38.49 10.55 39.26C10.63 40.03 11.32 40.59 12.1 40.51Z" fill="#FF5A30" fill-opacity="1.000000" fill-rule="nonzero"/>
	</g>
    </symbol>
</svg>